<svg width="22" height="18" viewBox="0 0 22 18" fill="none" xmlns="http://www.w3.org/2000/svg">
<path fill-rule="evenodd" clip-rule="evenodd" d="M1.60059 0H20.3994C21.2803 0 22 0.754144 22 1.67712C22 2.6001 21.2803 3.35425 20.3994 3.35425H1.60059C0.719725 3.35425 0 2.6001 0 1.67712C0 0.754144 0.719725 0 1.60059 0ZM1.60059 14.6457H20.3994C21.2803 14.6457 22 15.3999 22 16.3229C22 17.2459 21.2803 18 20.3994 18H1.60059C0.719725 18 0 17.2459 0 16.3229C0 15.3999 0.719725 14.6457 1.60059 14.6457ZM1.60059 7.32195H20.3994C21.2803 7.32195 22 8.07607 22 8.99906C22 9.92205 21.2803 10.6762 20.3994 10.6762H1.60059C0.719725 10.6762 0 9.92205 0 8.99906C0 8.07795 0.719725 7.32195 1.60059 7.32195Z" fill="#D9D9D9"/>
</svg>
