<svg width="33" height="30" viewBox="0 0 33 30" fill="none" xmlns="http://www.w3.org/2000/svg">
<path d="M31.1538 2.30769H25.3846V1.15385C25.3846 0.461538 24.9231 0 24.2308 0H8.07692C7.38462 0 6.92308 0.461538 6.92308 1.15385V2.30769H1.15385C0.461538 2.30769 0 2.76923 0 3.46154V6.57692C0 11.6538 3.92308 15.8077 9 16.0385C9.92308 17.3077 11.1923 18.2308 12.6923 18.8077V21.9231H11.5385C9.57692 21.9231 8.07692 23.4231 8.07692 25.3846V28.8462C8.07692 29.5385 8.53846 30 9.23077 30H23.0769C23.7692 30 24.2308 29.5385 24.2308 28.8462V25.3846C24.2308 23.4231 22.7308 21.9231 20.7692 21.9231H19.6154V18.9231C21.1154 18.3462 22.3846 17.3077 23.3077 16.1538C28.2692 15.8077 32.3077 11.7692 32.3077 6.69231V3.46154C32.3077 2.76923 31.8462 2.30769 31.1538 2.30769ZM2.30769 6.57692V4.61538H6.92308V10.3846C6.92308 11.5385 7.15385 12.5769 7.5 13.5C4.5 12.6923 2.30769 9.92308 2.30769 6.57692ZM30 6.57692C30 9.80769 27.8077 12.5769 24.8077 13.5C25.1538 12.5769 25.3846 11.5385 25.3846 10.3846V4.61538H30V6.57692Z" fill="#D9D9D9"/>
</svg>
