<svg width="43" height="42" viewBox="0 0 43 42" fill="none" xmlns="http://www.w3.org/2000/svg">
<g clip-path="url(#clip0_573_2804)">
<path d="M21.1765 28.2354V40.0001" stroke="#8E6E2E" stroke-width="3" stroke-linecap="round"/>
<path d="M28.2354 40H14.1177" stroke="#8E6E2E" stroke-width="3" stroke-linecap="round"/>
<path d="M8.81439 2.43882L10.5635 19.673C11.0077 22.3738 12.275 24.0623 14.0166 25.1247C15.8325 26.2324 18.295 26.7353 21.1766 26.7353C24.0584 26.7353 26.5208 26.2324 28.3366 25.1247C30.0782 24.0623 31.3455 22.3738 31.7897 19.6729L33.539 2.43907C33.59 1.93655 33.1955 1.5 32.6904 1.5H9.66279C9.15762 1.5 8.76333 1.93656 8.81439 2.43882Z" stroke="#8E6E2E" stroke-width="3" stroke-linecap="round"/>
<mask id="mask0_573_2804" style="mask-type:luminance" maskUnits="userSpaceOnUse" x="-1" y="7" width="11" height="15">
<path fill-rule="evenodd" clip-rule="evenodd" d="M7.0587 7.05859H1.28341C0.574466 7.05859 -0.00012207 7.63321 -0.00012207 8.34201V11.7645C-0.00012207 16.9624 4.21376 21.1762 9.41164 21.1762" fill="#8E6E2E"/>
</mask>
<g mask="url(#mask0_573_2804)">
<path d="M7.0587 4.05859C8.71555 4.05859 10.0587 5.40174 10.0587 7.05859C10.0587 8.71545 8.71555 10.0586 7.0587 10.0586V4.05859ZM9.41164 18.1762C11.0685 18.1762 12.4116 19.5194 12.4116 21.1762C12.4116 22.8331 11.0685 24.1762 9.41164 24.1762V18.1762ZM7.0587 10.0586H1.28341V4.05859H7.0587V10.0586ZM1.28341 10.0586C2.23118 10.0586 2.99988 9.2902 2.99988 8.34201H-3.00012C-3.00012 5.97621 -1.08225 4.05859 1.28341 4.05859V10.0586ZM2.99988 8.34201V11.7645H-3.00012V8.34201H2.99988ZM2.99988 11.7645C2.99988 15.3055 5.87061 18.1762 9.41164 18.1762V24.1762C2.5569 24.1762 -3.00012 18.6192 -3.00012 11.7645H2.99988Z" fill="#8E6E2E"/>
</g>
<mask id="mask1_573_2804" style="mask-type:luminance" maskUnits="userSpaceOnUse" x="32" y="7" width="11" height="15">
<path fill-rule="evenodd" clip-rule="evenodd" d="M35.2942 7.05859H41.0696C41.7784 7.05859 42.353 7.63321 42.353 8.34201V11.7645C42.353 16.9624 38.1392 21.1762 32.9413 21.1762" fill="#8E6E2E"/>
</mask>
<g mask="url(#mask1_573_2804)">
<path d="M35.2942 10.0586C33.6373 10.0586 32.2942 8.71545 32.2942 7.05859C32.2942 5.40174 33.6373 4.05859 35.2942 4.05859V10.0586ZM32.9413 24.1762C31.2844 24.1762 29.9413 22.8331 29.9413 21.1762C29.9413 19.5194 31.2844 18.1762 32.9413 18.1762V24.1762ZM35.2942 4.05859H41.0696V10.0586H35.2942V4.05859ZM41.0696 4.05859C43.4353 4.05859 45.353 5.97635 45.353 8.34201H39.353C39.353 9.29006 40.1216 10.0586 41.0696 10.0586V4.05859ZM45.353 8.34201V11.7645H39.353V8.34201H45.353ZM45.353 11.7645C45.353 18.6192 39.7961 24.1762 32.9413 24.1762V18.1762C36.4824 18.1762 39.353 15.3055 39.353 11.7645H45.353Z" fill="#8E6E2E"/>
</g>
</g>
<defs>
<clipPath id="clip0_573_2804">
<rect width="43" height="42" fill="white"/>
</clipPath>
</defs>
</svg>
