<svg width="42" height="30" viewBox="0 0 42 30" fill="none" xmlns="http://www.w3.org/2000/svg">
<path d="M1.15054 19.1539C-0.383515 16.597 -0.383515 13.4029 1.15054 10.8462C1.65089 10.0123 2.50035 9.44823 3.46306 9.31071L8.56506 8.58185C9.22491 8.48758 9.81338 8.11672 10.1831 7.56211L10.9866 6.35689C11.623 5.40231 11.9412 4.92502 12.295 4.49592C13.5434 2.98197 15.1759 1.83152 17.0215 1.16506C17.5446 0.976149 18.1012 0.837032 19.2142 0.558774L20.5559 0.223324C21.3003 0.0372359 21.6724 -0.0558079 21.9655 0.0353759C22.2198 0.114543 22.4365 0.283801 22.5751 0.511366C22.7346 0.77347 22.7346 1.15712 22.7346 1.92439V28.0757C22.7346 28.8429 22.7346 29.2266 22.5751 29.4885C22.4365 29.7162 22.2198 29.8854 21.9655 29.9646C21.6724 30.0559 21.3003 29.9626 20.5559 29.7766L19.2142 29.4413C18.1012 29.1629 17.5446 29.0239 17.0215 28.835C15.1759 28.1685 13.5434 27.0181 12.295 25.5041C11.9412 25.0749 11.623 24.5978 10.9866 23.643L10.1831 22.4379C9.81338 21.8833 9.22491 21.5125 8.56504 21.4181L3.46306 20.6893C2.50035 20.5518 1.65089 19.9878 1.15054 19.1539Z" fill="#D9D9D9"/>
<path fill-rule="evenodd" clip-rule="evenodd" d="M27.1235 6.10092C27.7646 5.45985 28.804 5.45985 29.4451 6.10092C31.793 8.449 33.1181 11.6299 33.1312 14.9505C33.1441 18.2713 31.8445 21.4625 29.515 23.829C28.8789 24.4751 27.8395 24.4832 27.1933 23.8472C26.5474 23.2113 26.5391 22.1719 27.1752 21.5258C28.8968 19.7767 29.8577 17.4179 29.8481 14.9634C29.8385 12.5091 28.859 10.158 27.1235 8.42245C26.4824 7.78138 26.4824 6.74198 27.1235 6.10092Z" fill="#D9D9D9"/>
<path fill-rule="evenodd" clip-rule="evenodd" d="M33.9553 1.45761C34.5964 0.81654 35.6358 0.81654 36.2769 1.45761C39.8501 5.03076 41.8661 9.87127 41.8861 14.9244C41.906 19.9776 39.928 24.8338 36.3831 28.435C35.7472 29.0811 34.7078 29.0894 34.0617 28.4534C33.4156 27.8173 33.4075 26.7779 34.0435 26.1318C36.9806 23.148 38.6196 19.1242 38.6029 14.9373C38.5865 10.7505 36.916 6.73974 33.9553 3.77914C33.3142 3.13807 33.3142 2.09867 33.9553 1.45761Z" fill="#D9D9D9"/>
</svg>
