<svg width="59" height="48" viewBox="0 0 59 48" fill="none" xmlns="http://www.w3.org/2000/svg">
<path d="M24.144 0L19.6987 13.3333H35.4107L39.856 0H24.144Z" fill="#F5F5F5"/>
<path d="M18.5227 0L14.0773 13.3333H2.66667V18.6667H56V13.3333H41.032L45.4773 0H52.2667C53.1071 0 53.9394 0.165541 54.7158 0.487171C55.4923 0.808801 56.1979 1.28022 56.7921 1.87452C57.3864 2.46881 57.8579 3.17434 58.1795 3.95083C58.5011 4.72731 58.6667 5.55954 58.6667 6.4V41.6C58.6667 43.2974 57.9924 44.9253 56.7921 46.1255C55.5919 47.3257 53.964 48 52.2667 48H6.4C4.70261 48 3.07475 47.3257 1.87452 46.1255C0.674284 44.9253 0 43.2974 0 41.6V6.4C0 5.55954 0.165541 4.72731 0.487171 3.95083C0.808801 3.17434 1.28022 2.46881 1.87452 1.87452C3.07475 0.674284 4.70261 0 6.4 0H18.5227Z" fill="#F5F5F5"/>
</svg>
