<svg width="48" height="48" viewBox="0 0 48 48" fill="none" xmlns="http://www.w3.org/2000/svg">
<path fill-rule="evenodd" clip-rule="evenodd" d="M3.49219 0H44.5078C46.4297 0 48 2.01105 48 4.47233C48 6.93361 46.4297 8.94466 44.5078 8.94466H3.49219C1.57031 8.94466 0 6.93361 0 4.47233C0 2.01105 1.57031 0 3.49219 0ZM3.49219 39.0553H44.5078C46.4297 39.0553 48 41.0664 48 43.5277C48 45.989 46.4297 48 44.5078 48H3.49219C1.57031 48 0 45.989 0 43.5277C0 41.0664 1.57031 39.0553 3.49219 39.0553ZM3.49219 19.5252H44.5078C46.4297 19.5252 48 21.5362 48 23.9975C48 26.4588 46.4297 28.4698 44.5078 28.4698H3.49219C1.57031 28.4698 0 26.4588 0 23.9975C0 21.5412 1.57031 19.5252 3.49219 19.5252Z" fill="#D9D9D9"/>
</svg>
