<svg width="48" height="49" viewBox="0 0 48 49" fill="none" xmlns="http://www.w3.org/2000/svg">
<path d="M1.34184 1.74711C2.20128 0.887933 3.36677 0.405273 4.58202 0.405273C5.79726 0.405273 6.96276 0.887933 7.8222 1.74711L24.0277 17.9526L40.2331 1.74711C41.0975 0.912282 42.2552 0.450342 43.4568 0.460784C44.6585 0.471226 45.8079 0.953215 46.6577 1.80294C47.5074 2.65266 47.9894 3.80214 47.9998 5.00378C48.0103 6.20543 47.5483 7.36311 46.7135 8.22747L30.508 24.4329L46.7135 40.6384C47.5483 41.5028 48.0103 42.6605 47.9998 43.8621C47.9894 45.0637 47.5074 46.2132 46.6577 47.0629C45.8079 47.9127 44.6585 48.3947 43.4568 48.4051C42.2552 48.4155 41.0975 47.9536 40.2331 47.1188L24.0277 30.9133L7.8222 47.1188C6.95783 47.9536 5.80016 48.4155 4.59851 48.4051C3.39686 48.3947 2.24739 47.9127 1.39767 47.0629C0.547942 46.2132 0.065953 45.0637 0.055511 43.8621C0.045069 42.6605 0.507009 41.5028 1.34184 40.6384L17.5473 24.4329L1.34184 8.22747C0.48266 7.36803 0 6.20254 0 4.98729C0 3.77204 0.48266 2.60655 1.34184 1.74711Z" fill="#D9D9D9"/>
</svg>
