<svg width="68" height="48" viewBox="0 0 68 48" fill="none" xmlns="http://www.w3.org/2000/svg">
<path fill-rule="evenodd" clip-rule="evenodd" d="M9.6288 24.8953C9.38143 24.5778 9.14884 24.2787 8.94208 24.0018C10.956 21.3345 13.1822 18.8343 15.5988 16.5255C20.7566 11.6262 27.2471 7.38774 33.9408 7.38774C40.6344 7.38774 47.1213 11.6262 52.2827 16.5255C54.6993 18.8344 56.9254 21.3346 58.9395 24.0018C56.9244 26.6682 54.6983 29.1684 52.2827 31.4782C47.1213 36.3775 40.6344 40.616 33.9408 40.616C27.2471 40.616 20.7602 36.3775 15.5988 31.4782C13.454 29.4295 11.4588 27.2295 9.6288 24.8953ZM66.5709 21.986L63.477 24.0018L66.5709 26.0177L66.5635 26.0288L66.5524 26.0435L66.5155 26.1026L66.3789 26.302C65.6388 27.3767 64.8655 28.4282 64.0603 29.455C62.0098 32.0708 59.774 34.536 57.3704 36.8316C51.8397 42.0854 43.5622 48 33.9408 48C24.3194 48 16.0418 42.0854 10.5112 36.8316C7.16473 33.6309 4.14686 30.1035 1.50265 26.302C1.45676 26.2358 1.41122 26.1693 1.36605 26.1026L1.32913 26.0435L1.31805 26.0288L1.31436 26.0214C1.31436 26.0177 1.31067 26.0177 4.40458 24.0018L1.31067 21.986L1.31805 21.9749L1.32913 21.9602L1.36605 21.9011C1.56867 21.595 1.77793 21.2935 1.99369 20.9965C4.52061 17.4636 7.37352 14.1756 10.5149 11.1758C16.0382 5.91093 24.3194 0 33.9408 0C43.5622 0 51.8397 5.91462 57.3704 11.1684C60.7169 14.369 63.7348 17.8965 66.3789 21.698L66.5155 21.8974L66.5524 21.9565L66.5635 21.9712L66.5672 21.9786L66.5709 21.986ZM63.477 24.0018L66.5709 21.986L67.8816 24.0018L66.5709 26.0177L63.477 24.0018ZM1.31067 21.986L4.40458 24.0018L1.31067 26.0177L0 24.0018L1.31067 21.986ZM30.2488 24.0018C30.2488 23.0227 30.6377 22.0836 31.3301 21.3912C32.0225 20.6988 32.9616 20.3098 33.9408 20.3098C34.92 20.3098 35.859 20.6988 36.5514 21.3912C37.2438 22.0836 37.6328 23.0227 37.6328 24.0018C37.6328 24.981 37.2438 25.9201 36.5514 26.6125C35.859 27.3049 34.92 27.6939 33.9408 27.6939C32.9616 27.6939 32.0225 27.3049 31.3301 26.6125C30.6377 25.9201 30.2488 24.981 30.2488 24.0018ZM33.9408 12.9258C31.0032 12.9258 28.186 14.0927 26.1088 16.1699C24.0316 18.247 22.8647 21.0643 22.8647 24.0018C22.8647 26.9394 24.0316 29.7566 26.1088 31.8338C28.186 33.911 31.0032 35.0779 33.9408 35.0779C36.8783 35.0779 39.6956 33.911 41.7727 31.8338C43.8499 29.7566 45.0168 26.9394 45.0168 24.0018C45.0168 21.0643 43.8499 18.247 41.7727 16.1699C39.6956 14.0927 36.8783 12.9258 33.9408 12.9258Z" fill="#F5F5F5"/>
</svg>
