<svg width="35" height="48" viewBox="0 0 35 48" fill="none" xmlns="http://www.w3.org/2000/svg">
<path d="M30.3537 7.81178L25.0619 13.1036C26.6248 15.337 27.5416 18.0555 27.5416 20.9884C27.5416 24.7904 26.0002 28.2346 23.5084 30.7255C21.4594 32.7744 18.7681 34.18 15.7631 34.6155V37.437H21.3855C22.6225 37.437 23.6264 38.4399 23.6264 39.6769C23.6264 40.9149 22.6225 41.9178 21.3855 41.9178H15.7631V45.7591C15.7631 46.9971 14.7592 48 13.5222 48C12.2842 48 11.2813 46.9971 11.2813 45.7591V41.9178H5.6589C4.42093 41.9178 3.418 40.9149 3.418 39.6769C3.418 38.4399 4.42093 37.437 5.6589 37.437H11.2813V34.534C8.47665 34.0218 5.96793 32.6602 4.03324 30.7255C1.54138 28.2346 0 24.7913 0 20.9884C0 17.1855 1.54138 13.7422 4.03324 11.2504C6.52511 8.75945 9.9684 7.21714 13.7703 7.21714C16.8259 7.21714 19.6484 8.21164 21.9323 9.89535L27.3459 4.4818H23.4681C22.2301 4.4818 21.2272 3.47887 21.2272 2.2409C21.2272 1.00293 22.2301 0 23.4681 0H32.5946C33.8317 0 34.8355 1.00293 34.8355 2.2409V11.6521C34.8355 12.8891 33.8317 13.8921 32.5946 13.8921C31.3567 13.8921 30.3537 12.8891 30.3537 11.6521V7.81178ZM20.3395 14.4202C18.6586 12.7393 16.3362 11.6989 13.7703 11.6989C11.2054 11.6989 8.88306 12.7393 7.20215 14.4202C5.52125 16.1002 4.4818 18.4235 4.4818 20.9884C4.4818 23.5533 5.52125 25.8766 7.20215 27.5566C8.88306 29.2375 11.2054 30.2779 13.7703 30.2779C16.3362 30.2779 18.6586 29.2375 20.3395 27.5566C22.0204 25.8766 23.0598 23.5533 23.0598 20.9884C23.0598 18.4235 22.0204 16.1002 20.3395 14.4202Z" fill="#F5F5F5"/>
</svg>
