<svg width="52" height="48" viewBox="0 0 52 48" fill="none" xmlns="http://www.w3.org/2000/svg">
<path d="M42.9156 9.85146C38.1558 3.50514 32.1059 0 25.7386 0C19.371 0 13.3213 3.50512 8.56149 9.85146C4.98338 14.6223 0.665938 21.0686 0.0699217 27.8479C-0.23742 31.3435 0.441501 34.9223 2.64288 38.3277C4.81885 41.6934 8.37351 44.7238 13.5424 47.3719C16.7235 49.0017 20.1887 46.8179 20.6376 43.627C19.6187 42.947 18.6172 42.095 17.703 41.0975C15.145 38.307 13.1084 34.2209 13.1084 29.0491C13.1084 20.3888 17.5793 14.5635 22.9574 13.0254C23.6708 12.8214 24.4743 13.358 24.5594 14.095C25.2799 20.3388 30.5567 25.1966 36.9792 25.2595C38.682 25.2762 38.3687 27.9401 38.3687 29.0491C38.3687 34.2209 36.332 38.307 33.7739 41.0975C32.8569 42.0978 31.8523 42.9521 30.8303 43.6331C31.235 46.8343 34.6653 49.0355 37.8491 47.4997C43.3177 44.8615 47.0522 41.8328 49.3107 38.4439C51.6036 35.0037 52.2493 31.3788 51.8559 27.8495C51.0986 21.0529 46.4543 14.5698 42.9156 9.85146Z" fill="#F5F5F5"/>
</svg>
