<svg width="55" height="48" viewBox="0 0 55 48" fill="none" xmlns="http://www.w3.org/2000/svg">
<path d="M27.1432 0C12.1526 0 0 12.1526 0 27.1432C0 35.2613 3.56533 42.5465 9.21482 47.5214V31.1457L7.56595 28.468H8.45917L13.679 15.0075L18.8291 28.468H19.7902L18.0735 31.1457V33.2751H22.468V18.7858L20.8191 16.108H21.7123L26.9303 2.6495L32.1501 16.108H33.0433L31.3266 18.7858V29.1558H35.6533V25.1721L33.9366 22.4943H34.8976L40.0477 9.03392L45.2676 22.4943H46.1608L44.5119 25.1721V48C50.4837 43.0214 54.2845 35.527 54.2845 27.1432C54.2845 12.1526 42.1319 0 27.1432 0Z" fill="#F5F5F5"/>
</svg>
