<svg width="27" height="30" viewBox="0 0 27 30" fill="none" xmlns="http://www.w3.org/2000/svg">
<g clip-path="url(#clip0_128_811)">
<path fill-rule="evenodd" clip-rule="evenodd" d="M5.11035 0H25.3057C25.75 0 26.1138 0.36377 26.1138 0.808106V23.3472C26.0771 23.9771 25.2642 23.9917 24.3853 23.9526H4.8125C3.59668 23.9526 2.60303 24.9463 2.60303 26.1621C2.60303 27.3779 3.59668 28.3716 4.8125 28.3716H24.3853V26.0205H26.1138V29.0088C26.1138 29.5532 25.6694 29.9976 25.125 29.9976H4.89795C2.71045 30 0.920898 28.2105 0.920898 26.0229V4.18945C0.920898 1.88477 2.80566 0 5.11035 0ZM14.2339 3.43018C19.1289 3.43018 23.0962 7.39746 23.0962 12.2925C23.0962 17.1875 19.1289 21.1548 14.2339 21.1548C9.33887 21.1548 5.37158 17.1875 5.37158 12.2925C5.37158 7.39746 9.33887 3.43018 14.2339 3.43018ZM13.7383 8.95264C13.8848 9.00391 14.0532 9.03076 14.2388 9.03076C14.4341 9.03076 14.6025 9.00391 14.7515 8.95264C14.8931 8.90381 15.02 8.82813 15.1299 8.72803C15.2349 8.63525 15.3179 8.52295 15.3691 8.396C15.4253 8.26416 15.4521 8.11523 15.4521 7.94678C15.4521 7.77588 15.4253 7.62207 15.3691 7.49023C15.3179 7.36328 15.2373 7.25098 15.1299 7.15332L15.125 7.14844C15.0176 7.04834 14.8882 6.97266 14.7466 6.92139C14.5977 6.87012 14.4292 6.84326 14.2339 6.84326C14.0459 6.84326 13.8774 6.87012 13.7358 6.92139C13.5967 6.97022 13.4746 7.0459 13.3647 7.146L13.3574 7.15332C13.25 7.25098 13.1694 7.36572 13.1182 7.49023C13.062 7.62207 13.0352 7.77344 13.0352 7.94678C13.0352 8.11523 13.062 8.26416 13.1182 8.396C13.1694 8.51563 13.2451 8.62305 13.3428 8.71338C13.3477 8.71826 13.355 8.7207 13.3574 8.72559C13.4648 8.82568 13.5942 8.90137 13.7358 8.9502V8.95264H13.7383ZM12.1782 16.5137V17.7417H16.3311V16.5137H16.2383C16.1528 16.5137 16.0674 16.4917 15.9795 16.4429C15.9111 16.4063 15.8477 16.3574 15.7891 16.2939C15.728 16.2354 15.6768 16.167 15.6401 16.0986C15.5938 16.0132 15.5693 15.9277 15.5693 15.8447V10.9692C15.5693 10.7739 15.5474 10.6372 15.4985 10.5566C15.479 10.5273 15.4546 10.5127 15.4131 10.5127H12.1343V11.8555H12.2734C12.3589 11.8555 12.4492 11.8823 12.5347 11.9312C12.5957 11.9653 12.6519 12.0093 12.7056 12.0703C12.7129 12.0752 12.7178 12.0825 12.7251 12.0898C12.7861 12.1533 12.8301 12.2168 12.8643 12.2803C12.9058 12.3633 12.9277 12.4438 12.9277 12.5269V15.8447C12.9277 15.9229 12.9082 15.9985 12.8716 16.0767L12.8594 16.0986C12.8252 16.1621 12.7813 16.2256 12.7202 16.2891C12.6592 16.3525 12.5957 16.4063 12.5322 16.4429C12.4468 16.4917 12.3613 16.5137 12.271 16.5137H12.1782Z" fill="#D9D9D9"/>
</g>
<defs>
<clipPath id="clip0_128_811">
<rect width="25.1929" height="30" fill="white" transform="translate(0.920898)"/>
</clipPath>
</defs>
</svg>
