<svg width="30" height="30" viewBox="0 0 30 30" fill="none" xmlns="http://www.w3.org/2000/svg">
<path fill-rule="evenodd" clip-rule="evenodd" d="M8.99997 15C8.99997 16.9594 7.74769 18.6263 5.99984 19.244L5.99997 28.5C5.99997 29.3284 5.3284 30 4.49997 30C3.67154 30 2.99997 29.3284 2.99997 28.5L2.99862 19.2435C1.25154 18.6253 -3.05176e-05 16.9588 -3.05176e-05 15C-3.05176e-05 13.0412 1.25154 11.3747 2.99862 10.7565L2.99997 1.5C2.99997 0.671573 3.67154 0 4.49997 0C5.3284 0 5.99997 0.671573 5.99997 1.5L5.99984 10.756C7.74769 11.3737 8.99997 13.0406 8.99997 15ZM5.99997 15C5.99997 14.1716 5.3284 13.5 4.49997 13.5C3.67154 13.5 2.99997 14.1716 2.99997 15C2.99997 15.8284 3.67154 16.5 4.49997 16.5C5.3284 16.5 5.99997 15.8284 5.99997 15ZM19.5 25.5C19.5 27.9853 17.4853 30 15 30C12.5147 30 10.5 27.9853 10.5 25.5C10.5 23.5412 11.7515 21.8747 13.4986 21.2565C13.4991 13.5411 13.4994 9.21541 13.5 1.5C13.5 0.671573 14.1715 0 15 0C15.8284 0 16.5 0.671573 16.5 1.5L16.4998 21.256C18.2477 21.8737 19.5 23.5406 19.5 25.5ZM16.5 25.5C16.5 24.6716 15.8284 24 15 24C14.1715 24 13.5 24.6716 13.5 25.5C13.5 26.3284 14.1715 27 15 27C15.8284 27 16.5 26.3284 16.5 25.5ZM30 4.5C30 6.4677 28.737 8.14042 26.9775 8.7518C26.9929 8.83198 27 8.91517 27 9V28.5C27 29.3284 26.3284 30 25.5 30C24.6715 30 24 29.3284 24 28.5V9C24 8.91517 24.007 8.83198 24.0205 8.75099C22.2629 8.14042 21 6.4677 21 4.5C21 2.01472 23.0147 0 25.5 0C27.9853 0 30 2.01472 30 4.5ZM27 4.5C27 3.67157 26.3284 3 25.5 3C24.6715 3 24 3.67157 24 4.5C24 5.32843 24.6715 6 25.5 6C26.3284 6 27 5.32843 27 4.5Z" fill="#D9D9D9"/>
</svg>
