<svg width="31" height="30" viewBox="0 0 31 30" fill="none" xmlns="http://www.w3.org/2000/svg">
<path d="M30.1764 3.20084C30.9086 2.46859 30.9086 1.28141 30.1764 0.54917C29.4443 -0.183057 28.257 -0.183057 27.5248 0.54917L1.27476 26.7992C0.542529 27.5314 0.542529 28.7187 1.27476 29.4509C2.007 30.183 3.19418 30.183 3.92642 29.4509L10.8684 22.5088C11.8879 23.6162 13.161 24.4639 14.5815 24.9767C15.0296 25.1385 15.5062 25.2578 16.4597 25.4961L17.6092 25.7835C18.2469 25.9429 18.5657 26.0226 18.8167 25.9446C19.0346 25.8767 19.2202 25.7318 19.3389 25.5368C19.4756 25.3122 19.4756 24.9837 19.4756 24.3263V13.9016L30.1764 3.20084Z" fill="#F5F5F5"/>
<path d="M19.4756 1.92386V4.84837L5.90536 18.4187L2.96663 17.9989C2.14193 17.881 1.41424 17.3978 0.985614 16.6834C-0.328538 14.4932 -0.328538 11.757 0.985614 9.56663C1.41424 8.85235 2.14193 8.36916 2.96663 8.25135L7.33724 7.62698C7.90252 7.54622 8.40663 7.22852 8.72338 6.75341L9.41167 5.72096C9.95683 4.90323 10.2294 4.49435 10.5325 4.12676C11.602 2.82984 13.0004 1.8443 14.5815 1.27338C15.0296 1.11157 15.5062 0.992373 16.4597 0.754023L17.6092 0.46664C18.2469 0.307228 18.5657 0.227522 18.8167 0.305634C19.0346 0.373472 19.2202 0.518447 19.3389 0.713391C19.4756 0.937941 19.4756 1.26657 19.4756 1.92386Z" fill="#F5F5F5"/>
</svg>
