<svg width="57" height="48" viewBox="0 0 57 48" fill="none" xmlns="http://www.w3.org/2000/svg">
<path d="M44.2967 20.0937L56.204 4.51429C56.8572 3.65969 56.9697 2.53571 56.4977 1.58064C56.0231 0.620388 55.0381 0 53.9883 0C53.5695 0 53.1593 0.0943453 52.7691 0.280367L35.0503 8.73033C35.0009 8.72216 34.9543 8.69862 34.9185 8.66282L34.8499 8.59422L25.1472 1.03183C24.3857 0.42997 23.4772 0.11177 22.5198 0.11177C20.35 0.11177 18.5286 1.73432 18.2828 3.88621L17.4517 11.1627L1.38158 25.8456L1.3472 25.8781C-0.322916 27.4989 -0.457606 30.1635 1.04046 31.9445L11.836 44.7784C12.6848 45.7875 13.9281 46.3661 15.2472 46.3661C16.3784 46.3661 17.4515 45.944 18.2785 45.1753L23.5198 41.0279L23.6358 40.9264C23.9378 40.6352 24.4028 40.5513 24.7887 40.7219L40.2911 47.5755C40.9282 47.8571 41.6011 48 42.2914 48C42.7981 48 43.2976 47.9213 43.7761 47.7661C45.8202 47.1033 47.77 45.4409 49.5717 42.8248C51.1622 40.5152 51.5374 37.5565 50.5754 34.9106L50.5583 34.8634L44.204 20.354C44.1855 20.2777 44.2053 20.1967 44.2582 20.1372L44.2967 20.0937ZM47.6407 36.0279C48.2362 37.7102 47.9929 39.5819 46.9859 41.0442C45.6049 43.0495 44.1601 44.3411 42.8075 44.7797C42.4127 44.9075 41.9581 44.8798 41.5606 44.7042L26.0582 37.8506C25.5213 37.6132 24.9516 37.4928 24.365 37.4928C23.3025 37.4928 22.2949 37.8884 21.518 38.6085L16.2762 42.7562L16.1602 42.8576C15.9134 43.0958 15.5893 43.2268 15.2472 43.2268C14.857 43.2268 14.4893 43.0559 14.2386 42.7578L3.44305 29.9238C3.0046 29.4025 3.03961 28.625 3.51997 28.1448L19.6004 13.4526L19.6348 13.4201C19.9959 13.0697 20.2788 12.6349 20.4527 12.1627L20.5178 11.9858L21.4023 4.24256C21.4765 3.59188 22.0208 3.25154 22.52 3.25154C22.7671 3.25154 22.9959 3.33333 23.2088 3.50161L31.2957 9.80486L41.3898 21.7552L47.6407 36.0279ZM42.127 17.7622L36.7511 11.3976L52.8647 3.71307L42.127 17.7622Z" fill="#F5F5F5"/>
<path d="M34.1044 27.1605C35.8877 27.1605 37.3335 25.7148 37.3335 23.9314C37.3335 22.148 35.8877 20.7023 34.1044 20.7023C32.321 20.7023 30.8753 22.148 30.8753 23.9314C30.8753 25.7148 32.321 27.1605 34.1044 27.1605Z" fill="#F5F5F5"/>
</svg>
