<svg width="67" height="48" viewBox="0 0 67 48" fill="none" xmlns="http://www.w3.org/2000/svg">
<path d="M65.6331 14.1931L36.235 0.660825C35.2815 0.221616 34.2658 0 33.2164 0C32.1669 0 31.1515 0.221616 30.1977 0.660825L0.799658 14.1931C0.313739 14.4177 0 14.9073 0 15.4422C0 15.9772 0.313739 16.4668 0.799658 16.6914L30.1977 30.2237C31.1513 30.6629 32.1669 30.8855 33.2164 30.8855C34.2658 30.8855 35.2815 30.6629 36.2353 30.2237L59.4364 19.5443V30.2983C58.5157 30.4021 57.7977 31.1858 57.7977 32.1327C57.7977 32.9578 58.3437 33.6721 59.1219 33.8996L57.553 44.2526H64.777L63.2083 33.8996C63.9863 33.6721 64.5323 32.9578 64.5323 32.1327C64.5323 31.1858 63.8142 30.4021 62.8935 30.2983V17.9527L65.6334 16.6914C66.1191 16.4668 66.433 15.9772 66.433 15.4422C66.433 14.9073 66.119 14.4177 65.6331 14.1931Z" fill="#F5F5F5"/>
<path d="M33.2164 35.7855C31.7572 35.7855 30.3433 35.4752 29.0142 34.8637L14.635 28.2442V41.4319C14.635 44.3271 23.3837 48 33.2164 48C43.0492 48 51.7979 44.327 51.7979 41.4319V28.2442L37.418 34.8637C36.0897 35.4752 34.6761 35.7855 33.2164 35.7855Z" fill="#F5F5F5"/>
</svg>
