<svg width="28" height="48" viewBox="0 0 28 48" fill="none" xmlns="http://www.w3.org/2000/svg">
<path d="M27.1572 0.0384994C27.0211 -0.0602868 26.8026 0.0445794 26.7135 0.199598C26.3962 0.756853 26.0785 1.31132 25.7605 1.86301C25.1264 2.96257 24.4887 4.05682 23.8602 5.16247C23.7771 5.14919 23.6933 5.15072 23.6105 5.16703C23.3382 5.22321 23.0921 5.43758 22.9263 5.76303C22.7605 6.08848 22.6885 6.49837 22.7261 6.90262C22.7318 6.96258 22.74 7.02195 22.7506 7.08044C22.3448 7.78562 21.9415 8.49384 21.5351 9.19826C21.0095 10.1101 20.4793 11.0167 19.9583 11.9339C19.7991 11.8984 19.6366 11.9186 19.4836 11.9929C19.3307 12.0671 19.1915 12.1933 19.0772 12.3615C18.9629 12.5297 18.8766 12.7352 18.8252 12.9616C18.7738 13.188 18.7587 13.4291 18.7811 13.6657C18.7885 13.7428 18.7998 13.819 18.8149 13.8936C18.8022 13.9477 18.782 13.9971 18.7555 14.0388C18.431 14.5928 18.1117 15.1536 17.7928 15.7144C17.4632 16.2942 17.1372 16.8778 16.8076 17.4576C16.4664 18.0563 16.1252 18.6531 15.784 19.2479C15.7433 19.3229 15.6953 19.3887 15.6417 19.4432C15.4803 19.3982 15.314 19.4108 15.1565 19.4801C14.9991 19.5494 14.8549 19.6733 14.7361 19.8416C14.6172 20.0099 14.5271 20.2177 14.473 20.448C14.4189 20.6783 14.4025 20.9243 14.4252 21.1658C14.4355 21.2682 14.4526 21.3687 14.4764 21.466C14.4556 21.5433 14.4266 21.6152 14.3904 21.6788C13.9809 22.4045 13.5648 23.1188 13.1508 23.8376C12.3766 25.1821 11.6026 26.5271 10.8288 27.8727C10.7879 27.9461 10.7413 28.0122 10.6901 28.0695C10.5973 28.0512 10.5034 28.0512 10.4106 28.0695C10.2703 28.0981 10.1352 28.1676 10.0129 28.2738C9.8907 28.38 9.78376 28.5209 9.69821 28.6885C9.61266 28.8561 9.55019 29.0471 9.51436 29.2505C9.47852 29.454 9.47003 29.6659 9.48937 29.8742C9.49781 29.9584 9.51064 30.0415 9.52775 30.1227C9.23091 30.6402 8.93765 31.1607 8.64029 31.6767C8.36085 32.1623 8.07731 32.6395 7.79684 33.1266C7.47032 33.6988 7.15249 34.2816 6.82442 34.8515C6.77933 34.9355 6.72603 35.009 6.66628 35.0696C6.37886 34.9582 6.07639 34.9654 5.79155 35.0906C5.50671 35.2158 5.25033 35.4542 5.05011 35.7801C4.8499 36.1059 4.71345 36.5068 4.65552 36.9394C4.5976 37.3719 4.62039 37.8198 4.72143 38.2346C4.72385 38.349 4.70924 38.4628 4.67863 38.5679C4.64802 38.673 4.60217 38.7667 4.54435 38.8425C4.50825 38.8901 4.47407 38.9409 4.44199 38.9945C4.06258 39.6601 3.68435 40.3266 3.30733 40.9938C3.18552 41.2088 3.04631 41.3737 2.84364 41.3669C2.77243 41.3647 2.70241 41.394 2.6425 41.4512C2.41014 41.6792 2.16806 41.8927 2.00428 42.2415C1.84051 42.5903 1.68133 42.9497 1.67212 43.3867C1.65984 43.9946 1.39268 44.4801 0.990404 44.585C0.936857 44.5938 0.884832 44.617 0.836864 44.6534C0.532854 44.9406 0.238569 45.2378 0.0691628 45.7439C-0.0250086 46.0258 -0.0331972 46.2993 0.108572 46.5433C0.421616 47.105 0.803716 47.5733 1.23453 47.9232C1.39063 48.0471 1.52882 48.0144 1.67468 47.8731C1.89227 47.6629 2.06459 47.3643 2.17113 47.0129C2.24943 46.7576 2.37585 46.4977 2.34258 46.1998C2.30573 45.8472 2.44494 45.6413 2.57187 45.4011C2.62038 45.3069 2.68214 45.2296 2.75286 45.1745C2.82357 45.1193 2.90154 45.0878 2.98131 45.082C3.18961 45.0516 3.33957 44.8388 3.5013 44.6716C3.69634 44.4693 3.85303 44.1958 3.95629 43.8776C4.06633 43.531 4.19377 43.1936 4.16101 42.7871C4.15231 42.683 4.14515 42.5797 4.19735 42.4885C4.35396 42.2149 4.50852 41.9375 4.66411 41.6625C4.98962 41.0887 5.32075 40.5226 5.63653 39.9352C5.6589 39.8864 5.68763 39.8446 5.72103 39.8125C5.75444 39.7804 5.79183 39.7586 5.83102 39.7483C6.13834 39.8712 6.46318 39.8579 6.76547 39.71C7.06776 39.5621 7.33429 39.2861 7.5322 38.916C7.7301 38.5459 7.85073 38.0979 7.8792 37.6272C7.90767 37.1565 7.84275 36.6838 7.69244 36.2672L7.69807 36.2551C7.93554 35.8295 8.1679 35.3979 8.40486 34.9724C9.0569 33.8021 9.71405 32.6372 10.3615 31.4609C10.4044 31.3805 10.4553 31.3102 10.5125 31.2527C10.5779 31.2577 10.6435 31.2536 10.7085 31.2405C10.8488 31.2119 10.984 31.1426 11.1062 31.0364C11.2285 30.9302 11.3355 30.7893 11.421 30.6216C11.5066 30.454 11.5691 30.263 11.6049 30.0595C11.6407 29.8561 11.6491 29.6441 11.6297 29.4358C11.6215 29.3757 11.6111 29.3163 11.5985 29.2579C11.6175 29.1943 11.6442 29.1363 11.6773 29.087C11.8048 28.8909 11.9127 28.6683 12.0299 28.4578C12.4005 27.7901 12.7714 27.1226 13.1426 26.4555C13.4691 25.8711 13.8003 25.2928 14.1268 24.7077C14.4979 24.0436 14.8612 23.3695 15.2384 22.7137C15.2806 22.6254 15.3325 22.5484 15.392 22.4858C15.5769 22.5016 15.7612 22.4433 15.9258 22.3171C16.0164 22.2544 16.1001 22.1717 16.174 22.0716C16.2647 21.9568 16.3388 21.8157 16.3916 21.6569C16.4444 21.4982 16.4748 21.3252 16.4811 21.1484C16.4934 21.0124 16.4934 20.8747 16.4811 20.7388C16.4811 20.7228 16.477 20.7084 16.4749 20.6924C16.488 20.5466 16.5296 20.4097 16.5947 20.2988C17.0379 19.4872 17.4909 18.6878 17.9407 17.8846C18.4433 16.9864 18.9459 16.0885 19.4485 15.1908C19.4912 15.1056 19.5394 15.0267 19.5923 14.9552C19.7552 15.0086 19.9245 15.0026 20.0855 14.9377C20.2465 14.8728 20.3946 14.751 20.517 14.5827C20.6394 14.4144 20.7325 14.2045 20.7884 13.9711C20.8444 13.7377 20.8614 13.4877 20.838 13.2424C20.8244 13.1023 20.7981 12.9655 20.7597 12.8359C21.5991 11.3343 22.4362 9.82973 23.2711 8.3221C23.309 8.25447 23.3459 8.1876 23.3832 8.12301C23.5858 8.23989 23.808 8.25916 24.0184 8.17808C24.2287 8.09701 24.4166 7.91971 24.5553 7.67131C24.694 7.4229 24.7766 7.11598 24.7912 6.79403C24.8059 6.47209 24.752 6.15144 24.6371 5.87753L24.6658 5.82737C24.9985 5.25061 25.3204 4.66018 25.6474 4.07962C25.9221 3.58771 26.1976 3.09707 26.474 2.6077C26.7432 2.12973 27.0165 1.65707 27.2816 1.17454C27.384 0.983807 27.4817 0.786996 27.4408 0.502035C27.4019 0.25507 27.2862 0.129687 27.1572 0.0384994Z" fill="#F5F5F5"/>
</svg>
